<?xml version="1.0" encoding="UTF-8" standalone="no"?>
<!-- Created with Inkscape (http://www.inkscape.org/) -->

<svg
   version="1.1"
   id="svg135"
   width="150"
   height="150"
   viewBox="0 0 266.66666 266.66666"
   xmlns="http://www.w3.org/2000/svg"
   xmlns:svg="http://www.w3.org/2000/svg">
  <defs
     id="defs139">
    <clipPath
       clipPathUnits="userSpaceOnUse"
       id="clipPath153">
      <path
         d="M 0,1200 H 1600 V 0 H 0 Z"
         id="path151" />
    </clipPath>
    <clipPath
       clipPathUnits="userSpaceOnUse"
       id="clipPath267">
      <path
         d="M 0,1200 H 1600 V 0 H 0 Z"
         id="path265" />
    </clipPath>
  </defs>
  <path
     d="m 133.33333,254.60133 c -0.68667,0 -1.368,-0.0147 -2.052,-0.0267 -42.975999,-1.092 -77.598665,-36.39067 -77.598665,-79.624 0,-27.98666 14.510667,-52.64533 36.401333,-66.85466 -4.344,7.41733 -6.848,16.03733 -6.848,25.23733 0,50.572 41.142662,91.716 91.716002,91.716 20.496,0 39.44266,-6.76 54.72933,-18.16534 -22.18,28.98534 -57.11467,47.71734 -96.348,47.71734 M 12.065333,133.33333 c 0,-0.68667 0.01467,-1.36933 0.02533,-2.05333 C 13.184,88.305331 48.482665,53.681332 91.715998,53.681332 c 27.986662,0 52.645332,14.512 66.856002,36.402666 -7.41734,-4.345333 -16.03867,-6.848 -25.23867,-6.848 -50.571999,0 -91.714664,41.142662 -91.714664,91.714662 0,20.496 6.758666,39.44267 18.163999,54.73067 -28.983999,-22.18 -47.717332,-57.11467 -47.717332,-96.348 M 133.33333,12.064 c 0.688,0 1.36933,0.01467 2.05333,0.02667 42.97467,1.092 77.59733,36.391999 77.59733,79.625332 0,27.986658 -14.51066,52.643998 -36.39999,66.855998 4.344,-7.41867 6.848,-16.04 6.848,-25.23867 0,-50.571995 -41.144,-91.715994 -91.716002,-91.715994 -20.496,0 -39.442666,6.76 -54.729332,18.164 C 59.166665,30.795999 94.101331,12.064 133.33333,12.064 m 0,83.235998 c 20.972,0 38.03333,17.061332 38.03333,38.033332 0,20.97067 -17.06133,38.03333 -38.03333,38.03333 -20.972,0 -38.033332,-17.06266 -38.033332,-38.03333 0,-20.972 17.061332,-38.033332 38.033332,-38.033332 m 121.26933,38.033332 c 0,0.68533 -0.0147,1.36933 -0.0253,2.05333 -1.09334,42.97334 -36.392,77.59733 -79.62533,77.59733 -27.98667,0 -52.64667,-14.51066 -66.85734,-36.40266 7.41867,4.34533 16.04,6.84933 25.23867,6.84933 50.57333,0 91.716,-41.14266 91.716,-91.714662 0,-20.497333 -6.76,-39.443999 -18.16534,-54.730666 28.98534,22.178667 47.71867,57.114666 47.71867,96.347998 m 12.064,0 C 266.66666,60.602665 208.13066,1.296 135.69733,0.03066667 134.91333,0.01066667 134.124,0 133.33333,0 60.603998,0 1.2973333,58.535999 0.02933333,130.96933 0.01066667,131.75466 0,132.54266 0,133.33333 c 0,72.72933 58.535999,132.036 130.97066,133.30266 0.784,0.02 1.57334,0.0307 2.36267,0.0307 72.73066,0 132.036,-58.53733 133.304,-130.97066 0.02,-0.78534 0.0293,-1.572 0.0293,-2.36267"
     style="fill:#5f59c5;fill-opacity:1;fill-rule:nonzero;stroke:none;stroke-width:1.33333"
     id="path157" />
</svg>
